/* XPM */
static char *character1694370514[] = {
/* columns rows colors chars-per-pixel */
"90 82 247 2 ",
"   c None",
".  c #000000",
"X  c #0A0404",
"o  c #0C090A",
"O  c #09060A",
"+  c #140C0C",
"@  c #0C0E13",
"#  c #180E12",
"$  c #161414",
"%  c #1B1314",
"&  c #18171B",
"*  c #19140A",
"=  c #241416",
"-  c #261917",
";  c #2F1D09",
":  c #2A231A",
">  c #36271B",
",  c #3F311A",
"<  c #141924",
"1  c #262626",
"2  c #2A2726",
"3  c #292826",
"4  c #292729",
"5  c #262929",
"6  c #29292A",
"7  c #27272A",
"8  c #332926",
"9  c #3E3324",
"0  c gray22",
"q  c #343534",
"w  c #282C36",
"e  c #1C2432",
"r  c #582E18",
"t  c #56351B",
"y  c #4D2D14",
"u  c #672C13",
"i  c #452C22",
"p  c #4C3623",
"a  c #45352C",
"s  c #4B3A2A",
"d  c #473825",
"f  c #533F2E",
"g  c #593C26",
"h  c #473B33",
"j  c #553D33",
"k  c #7A3D27",
"l  c #613C22",
"z  c #411300",
"x  c #79451F",
"c  c #56402A",
"v  c #5D432D",
"b  c #4D4033",
"n  c #5D4A35",
"m  c #4E402F",
"M  c #64462C",
"N  c #784323",
"B  c #624C36",
"V  c #674B37",
"C  c #754D3D",
"Z  c #764B36",
"A  c #685138",
"S  c #785539",
"D  c #77603D",
"F  c #3A3E49",
"G  c #2C4258",
"H  c #294764",
"J  c #375979",
"K  c #2D4F72",
"L  c #1F4468",
"P  c #454546",
"I  c #535353",
"U  c #5A5A5B",
"Y  c #554B47",
"T  c #685446",
"R  c #7A5745",
"E  c #6E524D",
"W  c #7C6245",
"Q  c #756152",
"!  c #6B615F",
"~  c #4C5E71",
"^  c #46627C",
"/  c #656769",
"(  c #6B6B71",
")  c #605E64",
"_  c #833E1B",
"`  c #B33A31",
"'  c #AB372C",
"]  c #A81B1C",
"[  c #864527",
"{  c #95582D",
"}  c #9B5935",
"|  c #8A5335",
" . c #A55C37",
".. c #B14A35",
"X. c #8D6036",
"o. c #AB613C",
"O. c #BA693E",
"+. c #BD751A",
"@. c #C36A3C",
"#. c #CE713C",
"$. c #845B42",
"%. c #8B5C45",
"&. c #985945",
"*. c #B45742",
"=. c #836445",
"-. c #8A6946",
";. c #8C6B4A",
":. c #87654A",
">. c #97694D",
",. c #94734E",
"<. c #9C704F",
"1. c #886657",
"2. c #956A55",
"3. c #967553",
"4. c #9B7552",
"5. c #9C7958",
"6. c #8C744C",
"7. c #B86B46",
"8. c #B8734B",
"9. c #AA6C53",
"0. c #AA7554",
"q. c #A67858",
"w. c #B87657",
"e. c #B0674C",
"r. c #956F62",
"t. c #AA7B62",
"y. c #B37C62",
"u. c #C15148",
"i. c #C86749",
"p. c #C4744B",
"a. c #C87448",
"s. c #C47C5B",
"d. c #C77855",
"f. c #D4785A",
"g. c #C66B57",
"h. c #E67851",
"j. c #C77E65",
"k. c #D77B65",
"l. c #BC8266",
"z. c #A48363",
"x. c #C5825E",
"c. c #CB825C",
"v. c #CF8156",
"b. c #D9875C",
"n. c #C6975C",
"m. c #E6895A",
"M. c #F48A56",
"N. c #EA935C",
"B. c #FD985F",
"V. c #C48462",
"C. c #CC8664",
"Z. c #CB8964",
"A. c #CB856A",
"S. c #CC8B6A",
"D. c #C3886A",
"F. c #D48A65",
"G. c #DE8E63",
"H. c #D38C6B",
"J. c #D88D6B",
"K. c #D68365",
"L. c #D3916C",
"P. c #DB936B",
"I. c #C98973",
"U. c #DC9571",
"Y. c #D99675",
"T. c #CC8F75",
"R. c #E28D62",
"E. c #E88B65",
"W. c #E5956B",
"Q. c #EA946C",
"!. c #E89568",
"~. c #F79868",
"^. c #E39575",
"/. c #EC9C72",
"(. c #E99A75",
"). c #F29D72",
"_. c #F99C76",
"`. c #E88E72",
"'. c #FFA769",
"]. c #ECA17B",
"[. c #F4A175",
"{. c #FDA374",
"}. c #F4A47B",
"|. c #FBA67C",
" X c #FEAB7D",
".X c #FBA978",
"XX c #FFB17D",
"oX c #FFBB78",
"OX c #FFAF5C",
"+X c #3F5C88",
"@X c #526D89",
"#X c #506D88",
"$X c #758791",
"%X c #778DA3",
"&X c #7D93A6",
"*X c #86888C",
"=X c #8A8E91",
"-X c #919297",
";X c #8293A5",
":X c #A9B5BF",
">X c #B5B2AF",
",X c #93A6B6",
"<X c #E9A585",
"1X c #FEAD82",
"2X c #F9AA86",
"3X c #FFB284",
"4X c #FEB48A",
"5X c #FFBB8D",
"6X c #F4B189",
"7X c #FFBD91",
"8X c #F6B493",
"9X c #F2AD96",
"0X c #DBAE97",
"qX c #FFC48C",
"wX c #FFC999",
"eX c #FFD599",
"rX c #FFCCA4",
"tX c #FFD5A4",
"yX c #EFC8B2",
"uX c #FFE9B0",
"iX c #DCCFBB",
"pX c #ACB8C1",
"aX c #9BADC6",
"sX c #BBC7D2",
"dX c #C6D5DD",
"fX c #D5D7DB",
"gX c #CDCCCE",
"hX c #ECD3CD",
"jX c #EBE4DC",
"kX c #FAE7D9",
"lX c #D6DDE4",
"zX c #DCE3E9",
"xX c #DBE7F3",
"cX c #DEF1FB",
"vX c #E2E5EA",
"bX c #E4EAEB",
"nX c #F2EBE6",
"mX c #EAEEF3",
"MX c #E5E7F2",
"NX c #EDF2F4",
"BX c #ECF5FA",
"VX c #E9F6F9",
"CX c #F1F1F2",
"ZX c #F5FAFD",
"AX c #FEFFFF",
"SX c #F6F8F6",
"DX c #FAF8EB",
/* pixels */
"                                                                                                                                                                                    ",
"                                                                                                                                                                                    ",
"                                                                                                                                                                                    ",
"                                                                                                                                                                                    ",
"                                                                                                                                                                                    ",
"                                                                          . & % & $ $ & & $ $ % & $ $ $ .                                                                           ",
"                                                                          . . . . . . . . . . . . . . . .                                                                           ",
"                                                                          X - - $ * $ * $ % $ % % - % * .                                                                           ",
"                                                                    . . Y 9X`.q.W 6.W R W ;.;.,.5.z.6.n Q 1 . .                                                                     ",
"                                                                    . . n 8X/.0.S :.S S S :.-.-.5.t.W t B : . .                                                                     ",
"                                                                    i i R l.0.<.W 1.W =.W :.W -.,.4.1.%.,.f + *                                                                     ",
"                                                              . . 8 9X8Xz.l M ;.z.3.5.5.5.W X.-.3.;.q.<X(.4.B Q & . .                                                               ",
"                                                              . . 8 Y.W.0.V T ;.5.,.,.4.3.=.$.-.4.6.q.J.W.=.y n $ . .                                                               ",
"                                                          )   E V %.L.P.9.A A ;.4.,.,.;.-.6.;.;.;.=.q.H.J.0.>.0.s * 3                                                               ",
"                                                        7 . # <X1X^.V.L.0.A A -.5.3.-.R =.,.5.,.W S 4.H.C.H.^.(.$.n n o . 3                                                         ",
"                                                        4 . # I.J.C.C.H.<.M V ;.z.6.-.W -.,.4.6.D S <.S.j.A.H.L.C p c o . 3                                                         ",
"                                                        3 . % I.F.L.}.2XL.0.l.>.S W =.=.=.3.,.<.l.q.L.2X|.U.c.L.S p c o . 7                                                         ",
"                                                        3 . # T.J.^.3X5X[.C.Y.>.v A R =.W 6.-.q.H.C.^.4X3X].C.U.C p b o . 5                                                         ",
"                                                        5 . % l.Z.H.XX3X(.f.U.>.A S -.;.-.,.,.0.F.c.U.3XXXU.V.T.Z p b + . 7                                                         ",
"                                                        1 . + M t %.3X X2X2X1XT.l.x.V.V.V.D.V.H.1X.X2X X5X0.g A V B n s h h $ . )                                                   ",
"                                                        3 . o d > R 4X X X X3XW.s.Z.C.Z.Z.A.l.H.3X X X X7X9.9 b n A V v V h . . I                                                   ",
"                                                        3 . o j d $.5X X1X X3X(.F.F.J.L.L.J.F.U.1X X1X X5Xq.p B B B B c M a . . I                                                   ",
"                                                        1 . o f d | 5X X1X X X1X1X1X1X1X1X1X1X1X X X1X X7Xq.p B B B n f M a . . I                                                   ",
"                                                        3 . o f 9 $.5X.X1X3X1X3X3X3X3X3X3X3X3X3X1X3X1X X7Xq.d B B V B f v a . . I                                                   ",
"                                                        3 . o f 9 | 5X X.X[.[.[.[.[.[.[.[.[.[.[.[.[.|.1XqXq.d B B B B c v d . . I                                                   ",
"                                                        3 . o j 9 R 4X3X).b.m.R.R.R.R.R.N.R.R.R.G.b.Q.1XqXq.d B B B B c v a . . I                                                   ",
"                                                        4 . O , ; Z 5X3X).b.R.G.b.R.m.R.R.G.G.R.).!.}.4XrXq.; p n A B c v a . . I                                                   ",
"                                                        4 . # 8.8.x.4X1X|.}.[.[.[.[.[.[.[.).}.Q.i.i.f.K.k.V.l.D.R c B c v a . . I                                                   ",
"                                                        5 . - 1XoX X X X1X1X4X2X1X1X1X1X3X3X7X/.` ` ..u.` ^.rXwX,.s n c v a . . I                                                   ",
"                                                        5 . - _.'..X4X7X4X|.1X1X1X X1X X1X X4X`.' ` u.g.u.`.wX7X>.s n g v a . . I                                                   ",
"                                                        3 . # { } } } [ s.7X.X X X1X X1X X XXX|.`._.g.k [ | } } Z n B g M a . . I                                                   ",
"                                                        3 . o r r r r ; e.wX1X X3X1X1X1X1X1XXX3X5XtXc.y M t y r v A V v B h . . I                                                   ",
"                                                        3 . # k [ k N u 9.qX.X X|.}.|. X X|..X|.|.5Xs.u k k k x M B n c c h o . U                                                   ",
"                                                        4 . # e.@.O.O.7.o.{ }  .}  .R..X~. .}  . .}  .7.O.O.O.O.M c m + . 6                                                         ",
"                                                        7 . # 7.#.O.@.#. ._ [ [ [ _ m.'.B.[ _ [ [ k  .a.@.i.@.a.Z d m o . 5                                                         ",
"                                                        4 . * i.a.a.a.a.O. .e. . . .N..X~.o. .o. . .O.a.a.a.i.d.Z d b o . 5                                                         ",
"                                                        3 . % m.m.b.~.Q.!.(.Q.Q.W.W.|.4X1XQ.W.Q.Q.Q.!.W.!.!.Q.[.S d h O . 5                                                         ",
"                                                        4 . # f.h.m.1X4X).b.R.R.W.E. X5X2XR.R.R.E.b.Q.1XXX~.m.Q.S d b O . 5                                                         ",
"                                                        4 . # E.B.v.R R w..X).W.m.E.).[.[.)./.).). XA.$.R j. X.X| , m B j E                                                         ",
"                                                        3 . = _.oXw.. . T wX3X).m.N.M.m.m.1X3X1X3XwX2.. . 1.rX5X$.: n 8XuX0X. . I                                                   ",
"                                                        6 . = _.oX0.. . E tX4X).M.N.M.M.~.1X3X3X3XeXr.. . 1.tXwXS * y /.qXU.. . I                                                   ",
"                                                        6 . = ~.OXG.1.Q y.).U.P.m.K.G.F.F.(.^.^.^.].D.1.1.g.k.k.e.-.>.<XwXL.. . I                                                   ",
"                                                        7 . % _.~.'.tXtX<Xd.x.D.A.A.V.c.s.d.s.s.s.8.U.tXuXk.] ' k.<XW.|.7XY.. . I                                                   ",
"                                                        3 . = _.{.{.oX3X/.y.Z.Z.V.C.V.y.j.j.s.s.s.w.J.1X8Xf.' ..d.H.c.4XrX<X. . I                                                   ",
"                                                        4 . % f.m.c.L.U.F.I.C.Q.|./.yXgXhXjXjXjXjXnXyXj.^.K.d.f.A.S.D.$.$.A . . I                                                   ",
"                                                        4 . + w.p.d.V.l.V.Z.s.<X3X6XnXVXBXSXAXAXAXAXhX9.d.S.H.S.S.K.D.g , > . . I                                                   ",
"                                                        4 . # s.d.c.Z.Z.Z.Z.V./.1X2XhXnXjXDXSXSXSXAXiXw.C.A.A.C.C.J.D.n h 9 . . I                                                   ",
"                                                        4 . # w.v.d.d.d.x.S.c./.3X.X2X6X2X6X7X<XI.T.H.A.Z.Z.F.Z.C.H.I.- . O . . I                                                   ",
"                                                        4 . % K.!.v.p.p.c.H.V.].5X3XXX X X X3X[.d.s.b.C.Z.C.C.C.U.}.<X@ . . . . I                                                   ",
"                                                        4 . # 2.>.9.v.d.x.Z.s.^.2X[.[.[.[.[.}.(.c.c.C.Z.S.C.Z.F.t.q.r.# . @ 0 $                                                     ",
"                                                        5 . X . . > c.a.p.p.d.p.p.p.p.p.p.p.p.p.p.p.s.F.C.A.F.^.8 . . X . 6                                                         ",
"                                                        1 . . . . 8 ].!.E.P.R.R.R.b.G.G.G.R.R.R.R.G.^.}.<X(.[.8X8 . . . . 5                                                         ",
"                                                          I       ! Z | C C C C C C C C R C C C C C S R R R R R /       I                                                           ",
"                                                                    . . . . . . . . . . . . . . . . . . . . . .                                                                     ",
"                                                                    . . . . . . . . . . X . . . . . . . . . . .                                                                     ",
"                                                                )   *X*X*X$X=Xr.} &.>.>.2.%.&.2.$X*X=X=X=X=X-X-X  U                                                                 ",
"                                                              X . P AXAXAXZXAXtX'..XqXwXwXoX'.rXAXAXAXAXAXAXAXAXP . .                                                               ",
"                                                              . . P AXZXVXxXVX9XM.~.{.1X XB.M.<XvXxXbXBXmXZXAXAXP . X                                                               ",
"                                                        U - P   gX-X6 & $XAXvXhXhXhX4X~.2XyXhXhXmXmXNXNXAX*X$ 6 -XfX  P & U                                                         ",
"                                                        1 . & ZXZX>X. . / AXxXMXcXVX8XB.6XbXVXcXVXNXCXNXAX/ . . >XAXAX& . 6                                                         ",
"                                                        2 . - jXSX>X. . ! AXzXxXxXbXyX].9XvXxXvXCXCXNXNXAX( . . >XAXjX- . 3                                                         ",
"                                                        2 . = <X7Xy.. . / AXzXbXNXBXnXkXnXCXmXBXCXCXNXNXAX/ . . D n.q.% . 6                                                         ",
"                                                        2 . = ~.OX7.. . / AXzXbXDXBXVXBXVXNXNXVXNXNXNXCXAX( . . x +.{ * . 5                                                         ",
"                                                        6 . % ~.oXw.. . / AXzXmXNXNXNXNXNXNXNXNXNXNXCXNXAX( . . X.N.w.% . 6                                                         ",
"                                                        5 . = ~.oXw.. . / AXzXmXCXmXNXmXNXCXCXCXCXCXNXNXAX( . . l.tX4X- . 6                                                         ",
"                                                        4 . % 4XeXV.. . / AXzXCXSXBXZXZXZXZXZXZXZXZXSXVXAX( . . T.uXtX< . 1                                                         ",
"                                                          U   >.9.E . . / AXlXbXmXmXvXlXzXlXlXlXlXfXzXzXAX/ . . E y.r.  I                                                           ",
"                                                              . . . X . ) ZXdXlXvXzXgXsXsXpXaXpX:X:XsXfXZX) . . . . .                                                               ",
"                                                              . . . . . / AXcXZXAXZXvXfXlXdXsXdXdXsXlXVXAX/ . . . . .                                                               ",
"                                                                    . . G ,X%X%X;X;X%X%X;X@X$X%X%X%X%X&XaXG . .                                                                     ",
"                                                                    . . < H L H H L K J +XH H H K J J K +Xe . .                                                                     ",
"                                                                    . . q ^ J ^ ^ ~ #X@X@X^ ^ ^ #X#X#X#X@Xw . .                                                                     ",
"                                                                    . . : T Y 3 @ & < < < & & < < @ q Q Q 2 . .                                                                     ",
"                                                                    . . : N _ - . . . . . . . . . . - X.{ > . .                                                                     ",
"                                                                    . . - M M - . O @ @ @ o @ @ . . : Z S > . .                                                                     ",
"                                                                    . . X o X X . .             . . X X o o . .                                                                     ",
"                                                                    . . . . . . . .             . . . . . . . .                                                                     ",
"                                                                    1 q 0 0 0 0 q 6             6 q 0 0 0 0 q 1                                                                     ",
"                                                                                                                                                                                    ",
"                                                                                                                                                                                    ",
"                                                                                                                                                                                    ",
"                                                                                                                                                                                    "
};
