/* XPM */
static char *_94ff964083e4bd0bd2be9cf5dba01a7raZc8L0MyIxEtjpA[] = {
/* columns rows colors chars-per-pixel */
"107 107 47 1 ",
"  c #107310",
". c #117311",
"X c #137713",
"o c #137813",
"O c #167B16",
"+ c #177F17",
"@ c #187F18",
"# c #178017",
"$ c #198319",
"% c #1A831A",
"& c #1B851B",
"* c #1B861B",
"= c #1C881C",
"- c #1E891E",
"; c #1F8C1F",
": c #208D20",
"> c #218F21",
", c #209020",
"< c #229222",
"1 c #249424",
"2 c #249724",
"3 c #259625",
"4 c #269826",
"5 c #279A27",
"6 c #279C27",
"7 c #289B28",
"8 c #299F29",
"9 c #2A9F2A",
"0 c #2BA32B",
"q c #2BA42B",
"w c #2DA42D",
"e c #2EA62E",
"r c #2FA72F",
"t c #2FAA2F",
"y c #30AB30",
"u c #33AE33",
"i c #33AF33",
"p c #33B033",
"a c #34B334",
"s c #36B336",
"d c #34B434",
"f c #35B435",
"g c #37B837",
"h c #38B738",
"j c #39BA39",
"k c #3ABB3A",
"l c #3ABC3A",
/* pixels */
"pfiffiaaiiuauihapddppifaahiiaiiiiauffiiappppaiaaiaaiiipppgpippppippfgiifipiappfpipdpipfiihiiaapppaiaauaaaua",
"yiapuaaiaaawfiiifdippttfiiaaiiaayiauaaaipfitaaiiaaiaditfppdfppfpitfpiafipfiypdpfddpfppipiiaaiipfyyaiauaauau",
"aaapuay0aaiafpiifwwadpfpaauawyaiaauuipiwfdpfapiiawwappfpppidqwfppfpdiiiqiaippdiiptwfdppdaiifwwffiaaauua0ufa",
"apiaay@3hiiaiipk7Owaiidpuff:%iaiaaauht%:fppfiiak0Owfppfppfg1%iappfppfi&;fiiapiikwO7fipppiah3@wffaaiiau::auu",
"aaayuu0yauaapiiptwiiaafiiia00uipkpiyii0tiiafppipywuuaifptppi0iiiffpppp0tiifffippi0tiifgiyiay0iiaahuiia00aua",
"w3whiakaifu77pppikaiai30fpihkauat3whaikfipi75pppikaiai36kppfkippt<wffpakiipw3iffikfipp57aaiakiiay1whayhhyua",
"O:aaafuaaa0.7hdfiiaih3Xwfaaiuaaa%%aaaaipffwX<gfdiuaih5X0fappfppd-&iddpippfto;ffpaifdf5.7haaaipaa:@yfaaiiaii",
"wyaaaaauaaawuaifhiaafwwafahauuaawwaaagpppppwiapdfauaft0paafdpidfwwpdpkpippfqipddfippfpwfaaafppaf0waaahaiiai",
"aaapptwfuaaaaaia0tipfpaaipi0iidddfppptwdpfpffppfwwaaaiaaiii0ippfppfiit0iifppffiawwfpaiaauaa0tpfappfpiiwiiaa",
"uyat;%wfuaayih7%-ippfpiif6O<piifitfp<#0pipdpigq&&yaiaaiih7%-pppdiidp<#5kipfiifw-&tfpaauuk7@:fppfpppf3O3fiaa",
"fadf<3gfyiiaafa-0kfpppaifw-ikiipaaif3<ffiiipdpp;0kayiiaaa0-tlpiipdik5<afiipafaa:5kdiiiaaau&0gppppfpg0-ihiii",
"uapflppiufiiauakpippppaaikfdppiiuaaflfpiiiiifpggapaiiiiaukkapppippipkappipiiaihhppiiiiiauhkapppppfppkffuiii",
"iiauiahaaaiyaaiikpifdpifpppkdippyuaiiakippitpfpphayaaiyaaiakptffiippipgppfptiaiifgyaaiiaaupkiidpiippiahuiaa",
"aauaay57aiiaaiaat30fifpppfpw3tfpafiaay67fppfpppdy30hiaaaiia03tpiddpfpi05pppfaiaai50giiaiaupt5wfipdpdii07iai",
"aauufi@7hiiaayik7%tpiipppff<&dfpaaiihi%3fpippiif0@raiiaayag3%pfpipipfp&<fpppaiih0O0fiiaauaf7#tpiidpiaa::aii",
"auyaipaiyihfitiippiiffftippppitphiyiiipiiifgpiiiuuuuihayiipfptidkitpppppiifgiyiipfitafayuuaupiidfptiiiaiyya",
"1:yffufkiay-3aaiihfpf0%7kpppkppf7-tgppfgaai:<afpaffaa0&7aauaaaua0%0ffpafaay3<iaaiffipi&3aaauhauaw&0ffpdfaia",
"%3faaaypaaw@7haaaifik3%iffdipdpp&:adfpipafwO7gdfuuaah7&yhaaauhaa--pfdfifaaiO3gaaaiaak7@whaauuaaa<&pfpfafaii",
"uiaafhiyfauufdphaiippiippffitipdiidpfkitiaaiaadffuuuauiaaahayaaaiifpffaupdppfdpfhypippiaaahaiuaapippffiiiaa",
"uafyy07huafufdty7wpfkipfptw5fifdiiptt0qfiaaiafwt00aaaaiaar07uuaappfpt07aifpipfti7wffpdiaarr7yaaapifpy05iiaa",
"iiay&%tfyiauua0X:aaupfpih3O3hiiaiipp-OwkiaaipftO&aayaauaf7.<huuapppp:o0kiifiiatO&pdiaaiih9O:aaiaaiaf<X5fiia",
"aaihw7kpiyaafaa5rhaytppiai5iaiiiifpgw7ffiyiafpf00hauyuaufi5phaiupppgw7afptppapk7wfpiiiaaaa7yhayiiaifi5ffpti",
"yaaakkppaayaauakfaaapipfiakaauaiipaphhaiiaiypppkaauaaauaffkpaapappppkkppiaiyaaakaapfayuauakpaidfyiddfkfpfdi",
"iaaitfftaaiuffiihawadppdiiikuyaaiafpiahyiaiifppihfyaauuafpikuwhippfiiiktiaiiaaiyhfwdfuuaaiikawdpiidpipltppi",
"aauakw-5fipfuufhw&wfufaiiaa3:yauaptpft-5pdpfppffw&wauafuppa7&tdiaauaau:3auuhayahw-7faifiiph0&wdiaaiipp3;fpp",
"aauupi-wfppdayuk0-yfuafayah33auuafppff&0pippappgy-waaafappk51piiafayaa:7auauayuhy-waiaaaiuh7;ipdaaaydf<3ppp",
"fwraiikayafa0uaupkiipfwtaiihhyyafwwpppkaiihiwiipukayuat0pfiffpipawwauukhyuaawyauukpiaaywufafkpiffw0appkftif",
"&&uafpppaf0O1aaappaik7O7haaiaaaa:%iffiaaffw@:fapiaaak7O5ffppfdpf<%whauufafy%:aaaaifah0O5faaupfip3O0hfpifpif",
":0hauhiiaar:yhaufpfpf71paiaaiapa<7ffahiaaay:whaaaipadw;ifppppaaa33aaafuaaii:wkaahtafa0:yaaaaiaia73aaaauufpi",
"asaahaiuuaaasuahptppfpdfaafiyiffffdpfftiiaiaaaafptiafpfdaakitpaaaaaahayaufaaffaaaiuuaiaaaahuyiaaaaaaahyuidd",
"uuar737haaayah07<tfpfitpa73<aipfiift7<5fiaayahq73wapfitffw3<iiihiiai733aufayufw7<0huaaufa03<yaaauuaa733aipf",
"aaau&&ffyuaauk0O<gppddfih7oqkipfipff-@afiiaaiat#;faipdfff7X5kayaiiaf:Oyhauaiuaa@-aauuaauh0O3kiifauuf3O0kiid",
"idikpifdiiiffpkyiaaiyiaiaayafptpipikpyaaiyiiaikitfaipippdgyaafyuiaihayfaiiipaukyyhfuiiaiihyiaayuufaaayaaiii",
"tppidfpppfttppiffiiaaiyauahapifftpapfgaiaaiyiaiffaiapitfiahauuafyiaiaafiaaiyiiuhaauapiyaiihfaiaaiuaiahaapfp",
"fpfipipwpfpffpiifywhaiaafuiattppfpfpiiiwaaiaaaiifiwhppfpauaawraaiaaiiiawifipaaauau0aaiaafiuhwyafppaiiifwtfi",
"dftdlwO5fpppipah7@waiaaiufh:%idpddtpft%3hiiaiiah0O7hiddiyah3%yfuaaiahi&:fpiaayakrO7hiiaiuah5%0fupfiiaa;&ppi",
"dkitii7tauffayiai0iiaahiiufw0itfkfuyaa70piafayiat6iiiaffiuaw7iiaafaypp00pidffauui5ipiahaiiaw7iiidfpyia70ptp",
"w7wafplfuaiw7paaigitfp3wfaihkiipi3whaykkppaw7iaialayaa56ffualaiap3wffifktifw5yaaikataa77aaiakiiai5whaikkiif",
"O:ffppppfgw.3kddippdk<Xwhaiipfdf%OufaauadpwO<haaiifah7X0haaauaia&#iddpiifftX-aaaaipfg7X7haaiiauk;Owfaappfpp",
"7tpfpkpippi7uaifhpppfw7aaihapppfqwaaafuupdp7yaaafppaaw7ffuffuaaaqwpdpkiipfp0yaaaaipdfi7iaaaaiaaa0wffafaiaap",
"ffauauwaiaaaaaipwyppdpfddipwpifppaaifywiifddaaifwraaafaaiiawuaaapffpfiwaiaiafaifywfadpafaaawwffaaaaiaiwiiaa",
"ppay:&wfyaayuhw--ypidptdf5&<dipppiay<%7kipftihw--yauauuik7%:fuiapppp1%7fiaayihw:&wfufpuuh7&:pppaiiaa3%3fipa",
"ifdf::hfiiiaffy%7kdiiifufw%ygpppaaah3;fptipfaaa&7kayufaaf0%0fiiappik3-ffiiaaaaa-1kfaiipift&wkiiaiaaf7-ifiip",
"ippfkaaaiiiaauhhfpppiiafplpapppiiaiagdffpippaihffpuuauaiakhafiiippipfffdiiiiaihhpiiippfdikfaaiiiipiakffappp",
"yiaiuaauaaiyaaiikauaayiaaiahiiaiyiaiiafpaaiyaappffpdaiyaiipkfyaapppppffpiaiyaaiiffpdditfaiigppaaipfpiigppfp",
"aaiaaiw7fpiaapiiu7waiaaiiaiy7yaiaaaiiiw7aaiaaipii7wfiaaapfpy5tfifppffpw7iaiaaiiiiqwfpidfiaii6waipfppiiw7pfp",
"aaiift#3hiiaiyak7@0hauauyaf;&paiiaiihy@3hiiaaiak6Owpiipiiph<%iaipfiifd%;fiiaaiikwO7pppdpyak3#taippptff-;ppp",
"hiyiapipyiahiiiauyiyahfuiiaiipyahayiiaiiyiahiyiiiipppgdippaptyiagptiipiiiyhhiyiupipipffiiiiippyagfpppppttif",
"7<yaaihauay:5pfpihaihw-7kaufhaia0:whfuhhuay13aaaiffpfi&0apiahauaw-wgfiahuai5;iaaihhiai;5ffpdhaihw-qffppfdip",
"@:haaayaaa0X7kffaiaif3@yaafuaaia%:faaayaffwO3haapppff5Owffaaiaaa-%pffpidfatO3haaayaaf7Xwkpdpiaia<Opfffpfpip",
"iuaaahauuaaiafphktppfyuadpkpyiafyufaahayiaaypfpfkppfdiipfpfauaaayiaadkptuaayaafphiiifatfppffiiaatpfdpgppppf",
"iaayiw7hfaauafwi7tpffaaapti7iaaauaayyw9auaaafpti7wppfpidfiy7uusaiaaitw0puaaiaati70aaaaidpii7tpaapfpipw6ppfd",
"iiay&@0aippiuhwO-pfpaaiif3X3fipauufi:O0haaauihw@&pfpppppg5X<auaaiiif;O7haufiift%&yaifdiig7o:paiapipf3o5fiif",
"apih77kaiippfaa<wkdtiiaikt3ifptiuaih07fauyuafuf30kpippppfi<ihauuiapfq7fauuiifpa57kaipppfdi<ikayiiapgw3ffiii",
"iaialhaiipiifpfkppiiiyiaiflpppppyaaagfpippuuaaakfppdfiidpfkaauuayappkgpauiitaiakaaiaptppdpkfuaauypppkgpppfp",
"iiaiiahypfiifiiikayhaiiapiakpiddiiaiipkippiiafuukptdpiippppkiyfuiafpppkiaaiiaaiihkwapipddiikayfaiifpiilitdp",
"fpiafw:0faifaiahw-qfpagpuaa7:uaaaaipft33ppffaiafw-wfiffppff7:tfpaauaay33fpidauffw:7kipfpiaaw:wauaaiaap5<pfi",
"ppiihi&7fiiaayih0&ippiffyah<:uuuaaipdp&5fpppaiaaw=wpppfpipg6-pppaauaaa&3pppfauafy&waiidfyah7-uauuaiyaf;<pii",
"fttiaihayifawiiaahiyaktwauaahuufhwifiikptpkp0uaudgpppgpwpppffpppk0waaihaiipfttppahayffiwiiaafaiakywaaigfitg",
"--ifpiaaaft@3aaaiaaif7#7hauaafua<%wfpppkfpt%:aaapffpf0O5gpppffpf3&wfaiaadpi--ifpiiaafwO5haiiffia5@whaifpppf",
";6gpffpiaft&whaaaiaia7&iaaauuaua:3aaffipaay&wffpfippf7-pfffppppf<<faafiidpt-7kpfayaafw&thaaaifaf3:aafffffpp",
"pffaffyiifpffaahayiaaafaaakayuaaaaaagfipiaiapddfftpfaiffpfgppipfpaaafgiaiidffffghyiafdpdaahituafiaaaffitppd",
"iift017fihftffw73taffaiauw71auaayufyw35fiaaiff003wdpaiiafw5<ppdfiifiw37fifdtifw03wfigpipfw7<yaiaiiaiw33pipf",
"piai&&faiippffwO:hiufuiik7.7kauafudf&Oifiiaipgt#-ffpaaipf0o5gppppppf:owfiifpiai@&aaippdpf0X3haiiiiih1Xwkppp",
"pfpgitffpppaaik0uaauiipddpwaafyiippfa0fauiiaauhyyafiiiaaaawfdpyiiauku0shuyuaaikt0aautpaaih0ufauupfahawffaii",
"ippiffpipfyyaiihfaufftippdhaauaiipdiffaafaiyaiuhaauaayyaifkpppaayiauahaaaaayiaihhauafpyaiahaauaftiaiahaaiai",
"ifppppfwffiiaaiiaiwfdipddauhwyfapppiuaawiaiiaaauauwffuiafuafithiaaaauuh0uaauaaiyaawappppauuhyyaaiipiiihwifi",
"pfpfkq&5fiifiiah0&wfpfppifa<&yaifppdky%<fiiaiiahw@wfuaaiufa3#taiaayuau::aauaaiahw@7hipfpiak7%wfudfpffa:-iii",
"ffptpi1wpiafayiaw3iiipffyuh77iiipfdpau70aiaaaiufy3iuaaaapipq5ipdfaauua70aiaafptfy3yuufffipfw3iiifdptif77iif",
"i7tfdilfiuaw7iaiplppdp70hauhlaiai5wfiukayiat7yaaakayaa07dfpfgiifa70afukayiay7tfpulayaaw7ppidkippf7wfpplhitf",
"O-dpddppahw.5haappfpg3Xwfaauaaai&&ifauiaaarO:faaiiaah7.7fpfppfff-@uafuuaaayO:ffpfaaah0.7gpfpfppf:Otppfiappp",
"7wdfpfppaay7yaaafppdfw5paaaaiaaa50faffiaaau3ifaiaiaaaw7ffpffpppf07fafaauiai5tdffhuuuaw7ifppdpddf07addffuppp",
"fpfpfa0auaaaaaakyraaausaufayyufaaaaukiwaifpffppkyyuaaihaaffyiippafaiffwppfpfffdfuraafuaadifiwiaaaaaufa0uiaa",
"iiat3-0aaaayih7::yausayaa7&3auaaiiay7%7hidftpf0;:0aaaayih7-:iipfiyai7&5fppftpfw<:0auaayak7::aaaaiyaa7&3hiaa",
"aaaa-:ffuuaaaai@7kayuasah7%wkiufiaaf:-aaiidifdi%3kauiiaif0Owkippaaih3&dfipdppdf&1aayufauf0@7kiyaaaih7%yhiia",
"iaihfaffuyuaaihauaayauauahaaiiauiaifhiaaiipfpihhiuauiiaaikffapppiaiffpdpippppikfuauuauauakaapiiiiaiahaaiiip",
"yiauuhaufauipaiphfaaayyaiiahiiaatpaipffppaiyaiiiafufaiyaaipkpifdyiaiiafiiapiipppaauaauyaaiffauaayiaipfaiifp",
"aaaiau00aauaiaiiu70haaaaaiii0taiffaapiwqaaiaaaaiaw0faiaaaiii7wppaaaiiit0iapffpppar0aaaaaaiai7ykuaaaaipt0ipp",
"aaiahyO3auuaayak7O0huaaiiah:%iaipftigiO1fiiiiypk0@0aiiaiiah3&ippiaiihi%-fiipptpgwO9huuaiyak3Oypiiaiiff--ppi",
"hayyuuwauaahiiiiiyuuaaaiyiiyyiyagpiiiptiiiahayiii0uuiffayiaytitfhayiiatiiipgfiipuruyaaaiiiaawiyahayyiattiif",
"65ifpikfiai33pddigppay:7kaiahuufw<whaihhiai53iaaihaift<6ffuahauaw;wgpifkiiu71yaaakauau17aauukauft;qgfifgiia",
"#;pppiiaaa0O0kpfiifph3Oyaaaaaaua%&faaayaaawX3kaapiaaf5Xwhffuuafa-%idffppapiO<haauuaaa0.0haaauaaf;#ppfpppaii",
"tifdfgiiiaiwpdipfippayyaaahfuafayyaaahiiiaawdpdpgiiafitfaaffauaatiffplppiaaruaaahauuau0auaahiaaattfpdfpipfp",
"pppipwwaiafpfpii0tpffuaauuy7uuaauaayiwwaiaaadfti0waafppfaua7uuaapppipwqpiaaaffyi00aaaaaaayu0yuaappfipt0ipfp",
"iiay-%wfiaayih7%-pdippiif5O<auaaptfa-#0fiaayifw&&iiippipa7O<auufpiip;O7giaayiaw&&yaiaaiif7@:aiiapipf<O5fipf",
"aaaf33kaiyiaaaf:0kftppaify-ihauufppf51kfiyiaaap<qkpiiiapau-thauupdik03ffiiiaaak17aaiiiaafi:whauupppgw<ffiip",
"iaiakhaiiaiiaihhfppdaiiapgkpuauutfppkfapiaiiaihkfpipiipapgkaaaaitfpdkaaiiaiiaiakfaiiiiiaffhafuuuipppgkpiipp",
"yaaiuahyaaiyaaiikptfayiapiikayffiddiiffiaaiyaaiygftfaiifpiiluyaappppppkiiaiyafuukhyaaiyadfukayafipfpiikiipp",
"aauaar37faiaaiaaw<wfppfipfa0<ipiffuiay35aaaauuaat<0auaauufaw<yaifpiaay77aaiaaufay<7hppdpppaw3wfapfpipp03iaa",
"aauahy&7fiiaayah0%tppifpiff<-apiuaaifu%7auuafuak0%yfauaayah3&iiapfiyaa&3aiiiaauh0&raappftfh6&tauippidf-:aii",
"hyyuiifptpgpypiipfpipgptippfpiiakyyuaufauuaayyuupditahuyauppayifgyyaiiaayyfhyyuuaaayihptppifaiyakiypipffyya",
"::yaaifffgw%3paapffpfq%6ffppfppp3&0hauafaau::aaapdpfhw@7fdfpfaia7%whaiahaai::uaauaaafw%5ffpphfuh5%0hppffaia",
"&7faappfpfw%wgpdfipif7&idppipfpp-<aaaayaaar%9haafuaua0%tfdddppdf::afaaufaay%7haafufuh7&whaaaiaia<-paaauaaii",
"aaaafktipdddfpfgfippaipfddlpippfuaaahhiauaauaaahhyuaauaadfkpiidfpaapahiyiaaiaaahhyiffuffuahayiaaiifaahayiai",
"iift050apfpipfww5tdpfauapw75ppffuaay077fafauaa0070aaaiiafw05iipfiifiw57fiaaiafww50aiaauaa003yaaaiifu077fiaa",
"iipi%%iapppiikwo;fpiuuaaf5X6gipfuuaa-OyaiuauusyO:aayaaiip5 5fipfpppf:Owhiiaiiay#&iaiafuuar.1hauaifua1O7hiia",
"aaikwwkfiipaaaf0yffyiifufa7faayuaaukt0faiyiaaihwtffyuaaaaa0uffippppfi0afiippfpkqwhfuiifaaf0yfaiiiaifp0pdpii",
"yipihfippptiaipkfpaaayuafakfauaayuaigfaaaaiyaipkdpaaayyauskfppppiiaaakaippptppikhuufiiyaiakaipaayiaafgfpdpf",
"idfpuffwpdppaapifpwfaiiaaiikyyaaiiaiipkwifiifppifpwaaiiaauuhpwfpiaaauuk0ifpidpiihawapppaaiifitfpiiaaiikttpp",
"pfpphy&7ffifiiafq&qfiaayiap3&uauaaiafp&<fiaappfpw&wgiaauuaa7&tfiaayiai:<fpifdiff0%0hppfpiah0&wfpaaiifi<;pdp",
"fguipi<0aiaaayiaw<piiafiyia73auuahayau<wauaafpppw1tpiaapiia73aipahftfd<0fuiadiipy:yiuaaayihw<uppaaayuf35ipp",
"i0yaiikayiaywiaipkpiaawwaaihkyuaf7wafukayuaawtappkdtafwwaaihkuiff7wpppkhyuai7idppkayff00iauakippawwffuhhtpf",
"%&aaaiiaahwX3faaiaaih3X0haaiaaua-%taaiiaaawO:aaapfdff7X6haaiifpf:%tdfiiaaat@:idpuaffh7X5haaupfpk3O0faiiafii",
"<0aaahiiaay<yhiafiaaa05paiaauaaa30ffahiiaat3yfaapidffw3iaiaaiipf77pdpgiifui3wgddaifffw3yaiaaipip53aaahaipii",
"akaahawiiaiahaahayuaaufaaahyyuaiahauaayuufaaaaukuwfaaiaafffiyuaaffauaa0iiauahffhuyiuauahuaayyiaaaaaiffwipfp",
"yuf07:0hiaayihw3:uuuaauaa0:1auaayuay7:7hiaayah03<waaaiiaf7<<auaauufu0:7huaayufw710aaaayah03<iaiauuaa0:3kidf",
"aiai&-aaiiaiafwO3auuauaia7@0huiauaaa:%aaiiaiuay@<fiiiaiig0O7huuaaiaa:@iaauauiau%:aauufiiawX7hiiaaiuf3Otfiip"
};
