/* XPM */
static char *_5ff057c3a244425d2ad6fc2a2535beenmhUb3SxixiUsz1a[] = {
/* columns rows colors chars-per-pixel */
"50 50 18 1 ",
"  c None",
". c black",
"X c #503018",
"o c #403040",
"O c #384040",
"+ c #784040",
"@ c #C03838",
"# c #885028",
"$ c #882840",
"% c #B05048",
"& c #E87060",
"* c #C89800",
"= c #D8A078",
"- c #406888",
"; c #9890B0",
": c #F8D0B8",
"> c #B8B0D0",
", c #E8E8F8",
/* pixels */
"                                                  ",
"                                                  ",
"                                                  ",
"                                                  ",
"                  oooooooooooooo                  ",
"                  oooooooooooooo                  ",
"                oo%%&&&&&&&&&&&&oooo              ",
"                oo%%&&&&&&&&&&&&oooo              ",
"              oo%%&&&&&&&&&&&&&&&&%%oo            ",
"              oo%%&&&&&&&&&&&&&&&&%%oo            ",
"              oo&&&&&&&&&&&&&&&&&&&&oo            ",
"              oo&&&&&&&&&&&&&&&&&&&&oo            ",
"            oo>>&&&&&&&&&&&&&&&&&&&&%%oo          ",
"            oo>>&&&&&&&&&&&&&&&&&&&&%%oo          ",
"          oo--%%,,&&&&&&&&&&&&&&&&&&%%oo          ",
"          oo--%%,,&&&&&&&&&&&&&&&&&&%%oo          ",
"        oo,,,,%%,,%%&&&&&&&&&&&&&&%%%%oo          ",
"        oo,,,,%%,,%%&&&&&&&&&&&&&&%%%%oo          ",
"        oo,,,,>>%%%%%%%%%%%%%%%%%%%%%%oo          ",
"        oo,,,,>>%%%%%%%%%%%%%%%%%%%%%%oo          ",
"        oo>>,,$$%%%%%%%%%%%%%%%%%%%%%%oo          ",
"        oo>>,,$$%%%%%%%%%%%%%%%%%%%%%%oo          ",
"          oo>>>>$$%%%%%%%%%%%%%%%%%%ooXX          ",
"          oo>>>>$$%%%%%%%%%%%%%%%%%%ooXX          ",
"            ooooOOoooooooooooooooooo##XX          ",
"            ooooOOoooooooooooooooooo##XX          ",
"            ++++..;;++XX##XX########XX            ",
"            ++++..;;++XX##XX########XX            ",
"            ++==..,,==XX====XX####XX..            ",
"            ++==..,,==XX====XX####XX..            ",
"            ==::::::::======XX####XX              ",
"            ==::::::::======XX####XX              ",
"              ++::::======XX##....                ",
"              ++::::======XX##....                ",
"                ++++++==XXXXXX**XX                ",
"                ++++++==XXXXXX**XX                ",
"                  $$>>>>**##******XX              ",
"                  $$>>>>**##******XX              ",
"                OO@@OOOOOO..##**##..              ",
"                OO@@OOOOOO..##**##..              ",
"                OO@@$$..OOOO..##**..              ",
"                OO@@$$..OOOO..##**..              ",
"                ++----..::::..**##..              ",
"                ++----..::::..**##..              ",
"              OO@@OO--..====......OO              ",
"              OO@@OO--..====......OO              ",
"              ..@@@@@@OO....OO$$$$OO              ",
"              ..@@@@@@OO....OO$$$$OO              ",
"                ......        ....                ",
"                ......        ....                "
};
