/* XPM */
static char *cfbbf04d33484718c78ccd24292928d3IH1WSYKyv1T10rd8[] = {
/* columns rows colors chars-per-pixel */
"50 50 15 1 ",
"  c None",
". c black",
"X c #503018",
"o c #403040",
"O c #384040",
"+ c #784040",
"@ c #C03838",
"# c #885028",
"$ c #882840",
"% c #B05048",
"& c #E87060",
"* c #C89800",
"= c #D8A078",
"- c #406888",
"; c #F8D0B8",
/* pixels */
"                  oooooooooooooo                  ",
"                  oooooooooooooo                  ",
"              oooo&&&&&&&&&&&&&&oooo              ",
"              oooo&&&&&&&&&&&&&&oooo              ",
"            oo%%&&&&&&&&&&&&&&&&&&%%oo            ",
"            oo%%&&&&&&&&&&&&&&&&&&%%oo            ",
"            oo&&&&&&&&&&&&&&&&&&&&&&oo            ",
"            oo&&&&&&&&&&&&&&&&&&&&&&oo            ",
"          oo%%&&&&&&&&&&&&&&&&&&&&&&%%oo          ",
"          oo%%&&&&&&&&&&&&&&&&&&&&&&%%oo          ",
"          oo%%&&&&&&&&&&&&&&&&&&&&&&%%oo          ",
"          oo%%&&&&&&&&&&&&&&&&&&&&&&%%oo          ",
"          oo%%%%&&&&&&&&&&&&&&&&&&%%%%oo          ",
"          oo%%%%&&&&&&&&&&&&&&&&&&%%%%oo          ",
"          oo%%%%%%%%&&&&&&&&&&%%%%%%%%oo          ",
"          oo%%%%%%%%&&&&&&&&&&%%%%%%%%oo          ",
"        XXoooo%%%%%%%%OOOOOO%%%%%%%%ooooXX        ",
"        XXoooo%%%%%%%%OOOOOO%%%%%%%%ooooXX        ",
"        ..==oo%%%%%%OOOOOOOOOO%%%%%%oo==..        ",
"        ..==oo%%%%%%OOOOOOOOOO%%%%%%oo==..        ",
"        ..==XXoooo%%%%%%%%%%%%%%ooooXX==..        ",
"        ..==XXoooo%%%%%%%%%%%%%%ooooXX==..        ",
"          ..XX##XXooooooooooooooXX##XX..          ",
"          ..XX##XXooooooooooooooXX##XX..          ",
"            ..XX##################XX..            ",
"            ..XX##################XX..            ",
"              ..XX##############XX..              ",
"              ..XX##############XX..              ",
"          ++OOOO....XX######XX....                ",
"          ++OOOO....XX######XX....                ",
"        ++==OOOOOO**XXXXXXXXXX**OO..              ",
"        ++==OOOOOO**XXXXXXXXXX**OO..              ",
"        ++====OO$$XX******..**OOOOOOOO            ",
"        ++====OO$$XX******..**OOOOOOOO            ",
"          ++....@@**********..$$OO==..            ",
"          ++....@@**********..$$OO==..            ",
"              ..$$##******##XX@@..;;;;++          ",
"              ..$$##******##XX@@..;;;;++          ",
"              OOOO**######**XX$$..;;;;++          ",
"              OOOO**######**XX$$..;;;;++          ",
"              ..--..******..OO--..++++            ",
"              ..--..******..OO--..++++            ",
"              ..OO--OOOOOOOO....                  ",
"              ..OO--OOOOOOOO....                  ",
"                ..----..                          ",
"                ..----..                          ",
"                ..@@@@..                          ",
"                ..@@@@..                          ",
"                  ....                            ",
"                  ....                            "
};
